HIERARCHY
ROOT SpineBase
{
  OFFSET 0.000000 0.000000 0.000000
  CHANNELS 6 Xposition Yposition Zposition Zrotation Xrotation Yrotation
  JOINT SpineMid
  {
    OFFSET 0.000000 31.232977 0.000000
    CHANNELS 3 Zrotation Xrotation Yrotation
    JOINT SpineShoulder
    {
      OFFSET 0.136984 23.101000 -0.719913
      CHANNELS 3 Zrotation Xrotation Yrotation
      JOINT Neck
      {
        OFFSET 0.097186 7.618541 -0.552004
        CHANNELS 3 Zrotation Xrotation Yrotation
        JOINT Head
        {
          OFFSET 1.963510 14.360958 0.436497
          CHANNELS 3 Zrotation Xrotation Yrotation
          End Site
          {
            OFFSET 0 0 0
          }
        }
      }
      JOINT ShoulderLeft
      {
        OFFSET -13.541049 -2.523874 -10.346430
        CHANNELS 3 Zrotation Xrotation Yrotation
        JOINT ElbowLeft
        {
          OFFSET -8.480872 -27.888707 -4.833684
          CHANNELS 3 Zrotation Xrotation Yrotation
          JOINT WristLeft
          {
            OFFSET 2.136203 -22.337739 -5.372626
            CHANNELS 3 Zrotation Xrotation Yrotation
            JOINT HandLeft
            {
              OFFSET 0.130324 -5.651577 0.825516
              CHANNELS 3 Zrotation Xrotation Yrotation
              JOINT HandTipLeft
              {
                OFFSET 0.428168 -4.821602 -0.884422
                CHANNELS 3 Zrotation Xrotation Yrotation
                End Site
                {
                  OFFSET 0 0 0
                }
              }
              JOINT ThumbLeft
              {
                OFFSET 3.307099 0.383714 -0.103445
                CHANNELS 3 Zrotation Xrotation Yrotation
                End Site
                {
                  OFFSET 0 0 0
                }
              }
            }
          }
        }
      }
      JOINT ShoulderRight
      {
        OFFSET 17.466132 -6.177446 6.809700
        CHANNELS 3 Zrotation Xrotation Yrotation
        JOINT ElbowRight
        {
          OFFSET 21.496106 -12.844933 -1.283926
          CHANNELS 3 Zrotation Xrotation Yrotation
          JOINT WristRight
          {
            OFFSET 0.368520 22.583796 -10.283077
            CHANNELS 3 Zrotation Xrotation Yrotation
            JOINT HandRight
            {
              OFFSET -1.263145 3.370568 -0.571466
              CHANNELS 3 Zrotation Xrotation Yrotation
              JOINT HandTipRight
              {
                OFFSET -4.297943 5.763456 0.677391
                CHANNELS 3 Zrotation Xrotation Yrotation
                End Site
                {
                  OFFSET 0 0 0
                }
              }
              JOINT ThumbRight
              {
                OFFSET -3.280676 -1.224184 -0.615866
                CHANNELS 3 Zrotation Xrotation Yrotation
                End Site
                {
                  OFFSET 0 0 0
                }
              }
            }
          }
        }
      }
    }
  }
  JOINT HipLeft
  {
    OFFSET -6.502028 0.947784 -7.339853
    CHANNELS 3 Zrotation Xrotation Yrotation
    JOINT KneeLeft
    {
      OFFSET -8.548216 -29.848082 3.789618
      CHANNELS 3 Zrotation Xrotation Yrotation
      JOINT AnkleLeft
      {
        OFFSET -6.700360 -31.528407 7.325349
        CHANNELS 3 Zrotation Xrotation Yrotation
        JOINT FootLeft
        {
          OFFSET 5.250738 -4.741750 -12.403077
          CHANNELS 3 Zrotation Xrotation Yrotation
          End Site
          {
            OFFSET 0 0 0
          }
        }
      }
    }
  }
  JOINT HipRight
  {
    OFFSET 7.425912 0.099040 0.170892
    CHANNELS 3 Zrotation Xrotation Yrotation
    JOINT KneeRight
    {
      OFFSET -3.641327 -30.733680 5.597629
      CHANNELS 3 Zrotation Xrotation Yrotation
      JOINT AnkleRight
      {
        OFFSET -4.805086 -31.952282 5.930205
        CHANNELS 3 Zrotation Xrotation Yrotation
        JOINT FootRight
        {
          OFFSET 5.055909 -4.735599 -12.431549
          CHANNELS 3 Zrotation Xrotation Yrotation
          End Site
          {
            OFFSET 0 0 0
          }
        }
      }
    }
  }
}
MOTION
Frames: 5
Frame Time: 0.033333
-46.337256 67.574449 363.751629 -0.357526 -1.235003 -25.330691 -0.209349 0.231979 25.320771 -0.058155 -0.346219 -0.012926 -0.158712 -7.323412 1.180293 0.000000 0.000000 0.000000 1.140163 0.003251 0.287471 -1.582125 2.635632 0.118685 -3.405459 -5.127156 -1.310716 7.928673 -2.082589 -0.683631 0.000000 0.000000 0.000000 0.000000 0.000000 0.000000 3.800549 7.741230 9.700400 -51.441071 -22.088981 -38.846000 -9.274374 -9.023569 -9.920775 -6.007947 6.424053 11.442488 0.000000 0.000000 0.000000 0.000000 0.000000 0.000000 -0.899845 2.549418 24.925085 0.644752 -0.827434 0.437070 -1.498786 -0.146848 2.971314 0.000000 0.000000 0.000000 -0.205237 1.269221 25.329111 -0.000000 0.000000 0.000000 -0.943807 0.475786 2.982601 0.000000 0.000000 0.000000
-46.385412 67.579947 364.004626 -0.453124 -1.567530 -24.313115 -0.202593 0.344066 24.301168 -0.036366 -0.388180 -0.011593 0.539816 -8.810818 1.437315 0.000000 0.000000 0.000000 1.553832 -0.463168 0.442133 -2.636330 3.251248 0.161248 -2.236976 -5.034493 -1.346715 7.830696 1.251966 -0.642930 0.000000 0.000000 0.000000 0.000000 0.000000 0.000000 3.306185 8.884063 11.194702 -59.047035 -21.747260 -45.521145 -5.739569 -9.470989 -11.709537 -11.249706 1.791512 7.649921 0.000000 0.000000 0.000000 0.000000 0.000000 0.000000 -0.859741 3.514763 23.793888 0.356867 -1.279297 0.535705 -1.807295 -0.087870 3.958149 0.000000 0.000000 0.000000 -0.458953 2.404922 24.243366 -0.117878 -0.813164 0.073935 -1.257174 0.618705 3.956412 0.000000 0.000000 0.000000
-46.432570 67.575686 364.256395 -0.541463 -1.898438 -23.257157 -0.172850 0.435591 23.242862 -0.008249 -0.440141 -0.008974 1.475005 -10.024069 1.683990 0.000000 0.000000 0.000000 1.890627 -1.050894 0.655519 -3.652446 3.962079 0.172950 -0.614658 -5.095915 -1.307981 6.332941 2.176598 -0.591153 0.000000 0.000000 0.000000 0.000000 0.000000 0.000000 4.582442 10.524412 12.768671 -66.755458 -20.428928 -51.108770 -0.180293 -9.793984 -13.923185 -15.227318 0.409260 6.752307 0.000000 0.000000 0.000000 0.000000 0.000000 0.000000 -0.800584 4.475340 22.618608 0.092047 -1.734727 0.637263 -2.123124 -0.047411 4.917871 0.000000 0.000000 0.000000 -0.456894 2.851707 23.184145 -0.163744 -0.902126 0.075652 -1.567406 0.745012 4.905415 0.000000 0.000000 0.000000
-46.493946 67.553765 364.496888 -0.625918 -2.215625 -22.201595 -0.116761 0.498085 22.184353 0.020133 -0.480755 -0.005757 2.515597 -11.134459 1.937107 0.000000 0.000000 0.000000 2.190108 -1.729243 0.906656 -4.774809 4.538482 0.192755 0.276902 -6.230262 -1.507406 5.171342 2.815217 -0.481089 0.000000 0.000000 0.000000 0.000000 0.000000 0.000000 5.774276 11.815435 13.741215 -72.347579 -18.746395 -54.668620 2.810451 -13.129387 -18.588249 -17.412087 1.121180 7.750903 0.000000 0.000000 0.000000 0.000000 0.000000 0.000000 -0.689506 5.421313 21.441561 -0.199411 -2.202640 0.732617 -2.403433 -0.018527 5.794314 0.000000 0.000000 0.000000 -0.406111 3.255083 22.130498 -0.226980 -0.951854 0.069431 -1.856406 0.843688 5.771553 0.000000 0.000000 0.000000
-46.572908 67.527538 364.700938 -0.694879 -2.486974 -21.161718 -0.041211 0.529055 21.141442 0.043369 -0.497813 -0.002290 3.483679 -11.898756 2.141175 0.000000 0.000000 0.000000 2.396443 -2.456052 1.179725 -5.778259 4.911494 0.179232 1.040719 -7.945002 -1.733987 3.504069 2.700625 -0.303328 0.000000 0.000000 0.000000 0.000000 0.000000 0.000000 7.085890 12.653704 13.999551 -77.815131 -17.350215 -57.501789 5.919165 -15.108815 -22.321336 -19.326368 1.031488 7.491234 0.000000 0.000000 0.000000 0.000000 0.000000 0.000000 -0.496917 6.210945 20.305005 -0.481553 -2.531548 0.790562 -2.665152 -0.038863 6.556119 0.000000 0.000000 0.000000 -0.299906 3.568913 21.099444 -1.064549 -0.448499 -0.171186 -1.360509 0.411528 6.721827 0.000000 0.000000 0.000000
